<?xml version="1.0" encoding="UTF-8" standalone="no"?>
<!-- Created with Inkscape (http://www.inkscape.org/) -->
<svg
   xmlns:dc="http://purl.org/dc/elements/1.1/"
   xmlns:cc="http://creativecommons.org/ns#"
   xmlns:rdf="http://www.w3.org/1999/02/22-rdf-syntax-ns#"
   xmlns:svg="http://www.w3.org/2000/svg"
   xmlns="http://www.w3.org/2000/svg"
   xmlns:xlink="http://www.w3.org/1999/xlink"
   xmlns:sodipodi="http://sodipodi.sourceforge.net/DTD/sodipodi-0.dtd"
   xmlns:inkscape="http://www.inkscape.org/namespaces/inkscape"
   width="48"
   height="48"
   id="svg2"
   sodipodi:version="0.32"
   inkscape:version="0.46"
   version="1.0"
   sodipodi:docname="glista48.svg"
   inkscape:output_extension="org.inkscape.output.svg.inkscape">
  <defs
     id="defs4">
    <linearGradient
       inkscape:collect="always"
       id="linearGradient3711">
      <stop
         style="stop-color:#ffffff;stop-opacity:1;"
         offset="0"
         id="stop3713" />
      <stop
         style="stop-color:#ffffff;stop-opacity:0;"
         offset="1"
         id="stop3715" />
    </linearGradient>
    <linearGradient
       inkscape:collect="always"
       id="linearGradient3695">
      <stop
         style="stop-color:#000000;stop-opacity:1;"
         offset="0"
         id="stop3697" />
      <stop
         style="stop-color:#000000;stop-opacity:0;"
         offset="1"
         id="stop3699" />
    </linearGradient>
    <linearGradient
       inkscape:collect="always"
       id="linearGradient3667">
      <stop
         style="stop-color:#000000;stop-opacity:1;"
         offset="0"
         id="stop3669" />
      <stop
         style="stop-color:#000000;stop-opacity:0;"
         offset="1"
         id="stop3671" />
    </linearGradient>
    <linearGradient
       inkscape:collect="always"
       id="linearGradient3647">
      <stop
         style="stop-color:#73d216;stop-opacity:1;"
         offset="0"
         id="stop3649" />
      <stop
         style="stop-color:#549910;stop-opacity:1"
         offset="1"
         id="stop3651" />
    </linearGradient>
    <linearGradient
       inkscape:collect="always"
       id="linearGradient3635">
      <stop
         style="stop-color:#000000;stop-opacity:1;"
         offset="0"
         id="stop3637" />
      <stop
         style="stop-color:#000000;stop-opacity:0;"
         offset="1"
         id="stop3639" />
    </linearGradient>
    <linearGradient
       inkscape:collect="always"
       id="linearGradient3621">
      <stop
         style="stop-color:#ffef61;stop-opacity:1"
         offset="0"
         id="stop3623" />
      <stop
         style="stop-color:#ceb800;stop-opacity:1"
         offset="1"
         id="stop3625" />
    </linearGradient>
    <linearGradient
       inkscape:collect="always"
       id="linearGradient3610">
      <stop
         style="stop-color:#edd400;stop-opacity:1;"
         offset="0"
         id="stop3612" />
      <stop
         style="stop-color:#d3bc00;stop-opacity:1"
         offset="1"
         id="stop3614" />
    </linearGradient>
    <inkscape:perspective
       sodipodi:type="inkscape:persp3d"
       inkscape:vp_x="0 : 526.18109 : 1"
       inkscape:vp_y="0 : 1000 : 0"
       inkscape:vp_z="744.09448 : 526.18109 : 1"
       inkscape:persp3d-origin="372.04724 : 350.78739 : 1"
       id="perspective10" />
    <linearGradient
       inkscape:collect="always"
       xlink:href="#linearGradient3610"
       id="linearGradient3616"
       x1="17.777779"
       y1="20.088888"
       x2="17.777779"
       y2="41.026283"
       gradientUnits="userSpaceOnUse"
       gradientTransform="translate(0,2)" />
    <linearGradient
       inkscape:collect="always"
       xlink:href="#linearGradient3621"
       id="linearGradient3627"
       x1="32.651852"
       y1="35.140739"
       x2="34.447342"
       y2="40.108356"
       gradientUnits="userSpaceOnUse"
       gradientTransform="translate(0,2)" />
    <filter
       inkscape:collect="always"
       id="filter3631">
      <feGaussianBlur
         inkscape:collect="always"
         stdDeviation="0.21842593"
         id="feGaussianBlur3633" />
    </filter>
    <linearGradient
       inkscape:collect="always"
       xlink:href="#linearGradient3635"
       id="linearGradient3641"
       x1="37.121429"
       y1="38.762203"
       x2="30.989267"
       y2="32.832817"
       gradientUnits="userSpaceOnUse" />
    <linearGradient
       inkscape:collect="always"
       xlink:href="#linearGradient3647"
       id="linearGradient3659"
       gradientUnits="userSpaceOnUse"
       x1="36.25"
       y1="8.4759188"
       x2="36.25"
       y2="26.533634" />
    <filter
       inkscape:collect="always"
       id="filter3663">
      <feGaussianBlur
         inkscape:collect="always"
         stdDeviation="0.66033881"
         id="feGaussianBlur3665" />
    </filter>
    <linearGradient
       inkscape:collect="always"
       xlink:href="#linearGradient3667"
       id="linearGradient3673"
       x1="29.818638"
       y1="20.519917"
       x2="33.516258"
       y2="6.720211"
       gradientUnits="userSpaceOnUse" />
    <linearGradient
       inkscape:collect="always"
       xlink:href="#linearGradient3695"
       id="linearGradient3701"
       x1="4.3919187"
       y1="46.53603"
       x2="4.3919187"
       y2="38.276154"
       gradientUnits="userSpaceOnUse" />
    <filter
       inkscape:collect="always"
       id="filter3707"
       x="-0.083165549"
       width="1.1663311"
       y="-0.23437564"
       height="1.4687513">
      <feGaussianBlur
         inkscape:collect="always"
         stdDeviation="1.0742217"
         id="feGaussianBlur3709" />
    </filter>
    <linearGradient
       inkscape:collect="always"
       xlink:href="#linearGradient3711"
       id="linearGradient3717"
       x1="7.6444445"
       y1="26.370371"
       x2="7.6444445"
       y2="53.639454"
       gradientUnits="userSpaceOnUse" />
  </defs>
  <sodipodi:namedview
     id="base"
     pagecolor="#ffffff"
     bordercolor="#666666"
     borderopacity="1.0"
     inkscape:pageopacity="0.0"
     inkscape:pageshadow="2"
     inkscape:zoom="1"
     inkscape:cx="24"
     inkscape:cy="24"
     inkscape:document-units="px"
     inkscape:current-layer="layer1"
     showgrid="true"
     inkscape:showpageshadow="false"
     inkscape:snap-nodes="false"
     inkscape:snap-bbox="true"
     inkscape:bbox-paths="true"
     inkscape:bbox-nodes="true"
     objecttolerance="10000"
     gridtolerance="10000"
     guidetolerance="10000"
     showborder="false"
     inkscape:window-width="1680"
     inkscape:window-height="1000"
     inkscape:window-x="-8"
     inkscape:window-y="-8"
     showguides="true"
     inkscape:guide-bbox="true">
    <inkscape:grid
       type="xygrid"
       id="grid2383"
       visible="false"
       enabled="true" />
  </sodipodi:namedview>
  <metadata
     id="metadata7">
    <rdf:RDF>
      <cc:Work
         rdf:about="">
        <dc:format>image/svg+xml</dc:format>
        <dc:type
           rdf:resource="http://purl.org/dc/dcmitype/StillImage" />
      </cc:Work>
    </rdf:RDF>
  </metadata>
  <g
     inkscape:label="Capa 1"
     inkscape:groupmode="layer"
     id="layer1">
    <path
       style="fill:url(#linearGradient3701);fill-opacity:1;stroke:none;stroke-width:1;stroke-linecap:square;stroke-linejoin:round;stroke-miterlimit:4;stroke-opacity:0.45291479000000001;filter:url(#filter3707);opacity:0.6"
       d="M 5,35 L 36,35 L 33.522507,46 L 5,46 L 5,35 z"
       id="rect3688"
       sodipodi:nodetypes="ccccc"
       transform="matrix(1.0967742,0,0,1,-0.4838711,0)" />
    <path
       style="fill:url(#linearGradient3616);fill-opacity:1;stroke:#c4a000;stroke-width:1;stroke-linecap:square;stroke-linejoin:round;stroke-miterlimit:4;stroke-opacity:1"
       d="M 6.4999998,4.5 L 39.499999,4.5 L 39.499999,36.573953 C 39.499999,39.154552 34.190686,44.5 31.404958,44.5 L 6.4999998,44.5 L 6.4999998,4.5 z"
       id="rect2385"
       sodipodi:nodetypes="cccccc" />
    <path
       style="fill:none;fill-opacity:1;stroke:url(#linearGradient3717);stroke-width:0.99999994000000003;stroke-linecap:square;stroke-linejoin:round;stroke-miterlimit:4;stroke-opacity:0.54260085999999996"
       d="M 7.5,5.4999998 L 38.500001,5.4999998 L 38.500001,36.074894 L 31.098405,43.500001 L 7.5,43.500001 L 7.5,5.4999998 z"
       id="path3160"
       sodipodi:nodetypes="cccccc" />
    <path
       style="font-size:5px;font-style:normal;font-variant:normal;font-weight:normal;font-stretch:normal;text-align:start;line-height:125%;writing-mode:lr-tb;text-anchor:start;fill:#2e3436;fill-opacity:1;stroke:none;stroke-width:1px;stroke-linecap:butt;stroke-linejoin:miter;stroke-opacity:1;font-family:Segoe Print;-inkscape-font-specification:Segoe Print"
       d="M 12.999512,13.823242 L 13.009277,13.967285 C 13.009275,14.051921 12.902667,14.094238 12.689453,14.094238 C 12.666665,14.094238 12.634113,14.066569 12.591797,14.01123 C 12.552733,13.959147 12.523436,13.936361 12.503906,13.942871 C 12.486001,13.942871 12.39689,13.964844 12.236572,14.008789 C 12.076252,14.052734 11.98063,14.081217 11.949707,14.094238 C 11.752766,14.157715 11.61442,14.189453 11.534668,14.189453 C 11.459798,14.189453 11.399983,14.164225 11.355225,14.11377 C 11.310465,14.063314 11.288086,14.014486 11.288086,13.967285 C 11.288086,13.881022 11.361735,13.817953 11.509033,13.778076 C 11.656331,13.7382 11.784504,13.708497 11.893555,13.688965 C 12.243488,13.617351 12.448566,13.56364 12.508789,13.527832 C 12.526691,13.216961 12.563312,12.860516 12.618652,12.458496 L 12.757812,11.428223 C 12.66341,11.428225 12.532388,11.485191 12.364746,11.599121 C 12.066893,11.794436 11.804849,11.892092 11.578613,11.89209 C 11.505371,11.892092 11.468749,11.840823 11.46875,11.738281 C 11.468749,11.67318 11.481363,11.630048 11.506592,11.608887 C 11.531819,11.58773 11.645344,11.533613 11.847168,11.446533 C 12.04899,11.359459 12.302896,11.224775 12.608887,11.04248 C 12.914874,10.860192 13.081704,10.769046 13.109375,10.769043 C 13.161456,10.769046 13.206215,10.804854 13.243652,10.876465 C 13.281085,10.948083 13.299802,11.010745 13.299805,11.064453 C 13.299802,11.110029 13.276202,11.156416 13.229004,11.203613 C 13.069497,11.90023 12.976723,12.433677 12.950684,12.803955 C 12.92464,13.174236 12.920571,13.3903 12.938477,13.452148 C 13.062172,13.447266 13.240395,13.412273 13.473145,13.347168 C 13.79378,13.260906 14.052569,13.217774 14.249512,13.217773 C 14.288571,13.292644 14.308102,13.356121 14.308105,13.408203 C 14.308102,13.463542 14.299964,13.49935 14.283691,13.515625 C 14.267412,13.531902 14.213701,13.555502 14.122559,13.586426 C 14.03141,13.617351 13.874346,13.647461 13.651367,13.676758 C 13.324216,13.722331 13.106931,13.771159 12.999512,13.823242 L 12.999512,13.823242 z M 15.272461,13.459473 L 15.326172,13.459473 C 15.355468,13.459473 15.390461,13.473715 15.431152,13.502197 C 15.471842,13.530681 15.492187,13.569337 15.492188,13.618164 C 15.492187,13.715821 15.475097,13.787435 15.440918,13.833008 C 15.406737,13.878581 15.351806,13.929037 15.276123,13.984375 C 15.200439,14.039714 15.147135,14.067383 15.116211,14.067383 C 15.047851,14.067383 14.997395,14.051921 14.964844,14.020996 C 14.932291,13.990072 14.916015,13.905436 14.916016,13.76709 C 14.916015,13.63851 14.92334,13.562012 14.937988,13.537598 C 14.952636,13.513184 14.988037,13.49406 15.044189,13.480225 C 15.100341,13.466391 15.176432,13.459473 15.272461,13.459473 L 15.272461,13.459473 z M 18.849121,14.272461 C 18.60498,14.272461 18.417399,14.202474 18.286377,14.0625 C 18.155355,13.922526 18.089844,13.7264 18.089844,13.474121 C 18.089844,13.049317 18.2583,12.60132 18.595215,12.130127 C 18.932128,11.658938 19.245441,11.423343 19.535156,11.42334 C 19.66699,11.423343 19.780516,11.49455 19.875732,11.636963 C 19.970945,11.779381 20.018553,11.930341 20.018555,12.089844 C 20.018553,12.185874 19.997801,12.268475 19.956299,12.337646 C 19.914793,12.406821 19.872882,12.441408 19.830566,12.441406 C 19.736163,12.441408 19.669432,12.346193 19.630371,12.155762 C 19.586424,11.950686 19.522948,11.848147 19.439941,11.848145 C 19.270669,11.848147 19.070474,12.049156 18.839355,12.451172 C 18.608235,12.853191 18.492675,13.192547 18.492676,13.469238 C 18.492675,13.745931 18.649739,13.884278 18.963867,13.884277 C 19.203124,13.884278 19.484699,13.771973 19.808594,13.547363 C 19.922524,13.467611 20.006346,13.427735 20.060059,13.427734 C 20.115395,13.427735 20.143064,13.459473 20.143066,13.522949 C 20.143064,13.646648 19.997394,13.802491 19.706055,13.990479 C 19.414712,14.178467 19.129068,14.272461 18.849121,14.272461 L 18.849121,14.272461 z M 21.576172,10 C 21.693358,10.000004 21.751952,10.074874 21.751953,10.224609 C 21.751952,10.358077 21.681151,10.675459 21.539551,11.176758 C 21.450031,11.492516 21.380858,11.840823 21.332031,12.22168 C 21.283202,12.602541 21.258788,12.901206 21.258789,13.117676 C 21.258788,13.386231 21.275878,13.653158 21.310059,13.918457 C 21.316568,13.968913 21.319823,14.005534 21.319824,14.02832 C 21.319823,14.109701 21.292154,14.179687 21.236816,14.238281 C 21.181477,14.296875 21.122883,14.326172 21.061035,14.326172 C 20.974772,14.326172 20.914957,14.272461 20.881592,14.165039 C 20.848225,14.057617 20.831543,13.884278 20.831543,13.64502 C 20.831543,13.099773 20.897054,12.424318 21.028076,11.618652 C 21.159098,10.812992 21.263264,10.341801 21.340576,10.205078 C 21.417886,10.068363 21.496418,10.000004 21.576172,10 L 21.576172,10 z M 24.24707,13.305664 C 24.247068,13.47168 24.100177,13.671875 23.806396,13.90625 C 23.512612,14.140625 23.209471,14.257812 22.896973,14.257812 C 22.634928,14.257812 22.432698,14.180501 22.290283,14.025879 C 22.147868,13.871257 22.07666,13.655599 22.07666,13.378906 C 22.07666,12.913413 22.233724,12.470705 22.547852,12.050781 C 22.861978,11.630862 23.205402,11.420901 23.578125,11.420898 C 23.700193,11.420901 23.799884,11.460777 23.877197,11.540527 C 23.954506,11.620282 23.993162,11.716311 23.993164,11.828613 C 23.993162,12.079266 23.870278,12.319338 23.624512,12.548828 C 23.378742,12.778322 23.049966,13.003745 22.638184,13.225098 C 22.553547,13.269044 22.51123,13.32601 22.51123,13.395996 C 22.51123,13.531088 22.550292,13.639323 22.628418,13.720703 C 22.706542,13.802084 22.822102,13.842774 22.975098,13.842773 C 23.325031,13.842774 23.68229,13.649089 24.046875,13.261719 C 24.100584,13.208009 24.141274,13.181153 24.168945,13.181152 C 24.221026,13.181153 24.247068,13.222657 24.24707,13.305664 L 24.24707,13.305664 z M 22.550293,12.924805 C 23.240396,12.51465 23.585447,12.185061 23.585449,11.936035 C 23.585447,11.838381 23.541502,11.789553 23.453613,11.789551 C 23.303872,11.789553 23.135008,11.899416 22.947021,12.119141 C 22.759032,12.338869 22.62679,12.607423 22.550293,12.924805 L 22.550293,12.924805 z M 26.400391,13.244629 C 26.172524,13.550619 25.947101,13.780111 25.724121,13.933105 C 25.501138,14.0861 25.296874,14.162598 25.111328,14.162598 C 24.986002,14.162598 24.877766,14.109701 24.786621,14.003906 C 24.695475,13.898112 24.649902,13.762207 24.649902,13.596191 C 24.649902,13.168132 24.841145,12.707114 25.223633,12.213135 C 25.606119,11.719159 25.986164,11.472171 26.36377,11.472168 C 26.500486,11.472171 26.602211,11.550296 26.668945,11.706543 C 26.690102,11.758629 26.723468,11.78467 26.769043,11.784668 C 26.899249,11.78467 26.964353,11.835126 26.964355,11.936035 C 26.964353,11.986493 26.956215,12.055666 26.939941,12.143555 C 26.852048,12.623699 26.808103,12.962241 26.808105,13.15918 C 26.808103,13.55306 26.882973,13.789063 27.032715,13.867188 C 27.104327,13.90625 27.140134,13.954265 27.140137,14.01123 C 27.140134,14.061686 27.105141,14.112549 27.035156,14.163818 C 26.965167,14.215088 26.897621,14.240723 26.83252,14.240723 C 26.707192,14.240723 26.603839,14.15446 26.522461,13.981934 C 26.441079,13.809408 26.400389,13.56364 26.400391,13.244629 L 26.400391,13.244629 z M 26.251465,11.870117 C 26.036619,11.870119 25.786782,12.071535 25.501953,12.474365 C 25.217122,12.877199 25.074706,13.211264 25.074707,13.476562 C 25.074706,13.663737 25.136555,13.757325 25.260254,13.757324 C 25.439289,13.757325 25.687499,13.576661 26.004883,13.215332 C 26.322264,12.854005 26.480955,12.521974 26.480957,12.219238 C 26.480955,11.986493 26.404458,11.870119 26.251465,11.870117 L 26.251465,11.870117 z M 29.356934,12.255859 C 29.272296,12.255861 29.17993,12.3112 29.079834,12.421875 C 28.979735,12.532554 28.827147,12.780763 28.62207,13.166504 C 28.351887,13.684082 28.177327,13.978679 28.098389,14.050293 C 28.019449,14.121908 27.953938,14.157715 27.901855,14.157715 C 27.709798,14.157715 27.613769,14.064941 27.61377,13.879395 C 27.613769,13.80127 27.62679,13.690593 27.652832,13.547363 C 27.74235,13.055828 27.787109,12.537436 27.787109,11.992188 C 27.787109,11.930341 27.813557,11.861575 27.866455,11.785889 C 27.919352,11.710208 27.9694,11.672366 28.016602,11.672363 C 28.101236,11.672366 28.161458,11.698407 28.197266,11.750488 C 28.233072,11.802574 28.250976,11.907554 28.250977,12.06543 C 28.250976,12.22982 28.202148,12.568361 28.104492,13.081055 C 28.071939,13.250326 28.055663,13.357748 28.055664,13.40332 C 28.055663,13.429363 28.062174,13.442384 28.075195,13.442383 C 28.099609,13.442384 28.212727,13.247885 28.414551,12.858887 C 28.618,12.463381 28.796223,12.185061 28.949219,12.023926 C 29.102212,11.862795 29.270669,11.782229 29.45459,11.782227 C 29.601072,11.782229 29.720294,11.848961 29.812256,11.982422 C 29.904213,12.115887 29.971352,12.359214 30.013672,12.712402 C 30.059242,13.114422 30.100339,13.364665 30.136963,13.463135 C 30.173581,13.561605 30.231768,13.61084 30.311523,13.61084 C 30.361976,13.61084 30.425453,13.592937 30.501953,13.557129 C 30.514971,13.550619 30.524736,13.547364 30.53125,13.547363 C 30.601234,13.547364 30.636227,13.588054 30.63623,13.669434 C 30.636227,13.741049 30.588213,13.817139 30.492188,13.897705 C 30.396156,13.978272 30.280596,14.018555 30.145508,14.018555 C 30.007159,14.018555 29.900144,13.963623 29.824463,13.85376 C 29.748777,13.743897 29.688963,13.450522 29.64502,12.973633 C 29.599444,12.495119 29.503416,12.255861 29.356934,12.255859 L 29.356934,12.255859 z M 12.269531,19.763184 C 12.354165,19.756674 12.482746,19.753419 12.655273,19.753418 C 12.868488,19.753419 13.222491,19.768881 13.717285,19.799805 C 13.852373,19.806316 13.939043,19.808757 13.977295,19.807129 C 14.015541,19.805502 14.065589,19.792481 14.127441,19.768066 C 14.19417,19.742025 14.244626,19.729005 14.278809,19.729004 C 14.306475,19.729005 14.33862,19.749756 14.375244,19.79126 C 14.411862,19.832764 14.430172,19.868165 14.430176,19.897461 C 14.430172,20.003256 14.374834,20.085856 14.26416,20.145264 C 14.15348,20.204671 14.05501,20.234375 13.96875,20.234375 L 13.878418,20.234375 C 13.722165,20.234375 13.607419,20.223796 13.53418,20.202637 C 13.30794,20.142416 13.026365,20.112305 12.689453,20.112305 C 12.401366,20.112305 12.148274,20.147298 11.930176,20.217285 C 11.712076,20.287272 11.570475,20.361328 11.505371,20.439453 C 11.432128,20.527344 11.377197,20.582275 11.340576,20.604248 C 11.303955,20.62622 11.253906,20.637207 11.19043,20.637207 C 11.063476,20.637207 11,20.581054 11,20.46875 C 11,20.297852 11.069987,20.146892 11.209961,20.015869 C 11.349934,19.884848 11.585123,19.735515 11.915527,19.567871 C 12.109211,19.471843 12.227212,19.405925 12.269531,19.370117 C 12.311848,19.334311 12.428628,19.229331 12.619873,19.055176 C 12.811115,18.881024 12.956378,18.731284 13.055664,18.605957 C 13.154946,18.480633 13.226153,18.368736 13.269287,18.270264 C 13.312416,18.171796 13.333982,18.081057 13.333984,17.998047 C 13.333982,17.884117 13.266436,17.76815 13.131348,17.650146 C 12.996254,17.532148 12.870929,17.473147 12.755371,17.473145 C 12.656086,17.473147 12.506346,17.535403 12.306152,17.659912 C 12.105956,17.784426 11.95703,17.904462 11.859375,18.02002 C 11.795898,18.094892 11.699055,18.132326 11.568848,18.132324 C 11.537923,18.132326 11.504557,18.097333 11.46875,18.027344 C 11.432942,17.957359 11.415039,17.901207 11.415039,17.858887 C 11.415039,17.827965 11.419108,17.806806 11.427246,17.79541 C 11.435384,17.78402 11.517171,17.722984 11.672607,17.612305 C 11.828043,17.50163 11.968017,17.406009 12.092529,17.325439 C 12.21704,17.244876 12.341958,17.183434 12.467285,17.141113 C 12.592609,17.098799 12.753742,17.07764 12.950684,17.077637 C 13.118325,17.07764 13.275795,17.14722 13.423096,17.286377 C 13.570391,17.42554 13.679848,17.562259 13.751465,17.696533 C 13.823077,17.830813 13.858884,17.907717 13.858887,17.927246 C 13.858884,18.15023 13.692461,18.458661 13.359619,18.852539 C 13.026772,19.24642 12.66341,19.549968 12.269531,19.763184 L 12.269531,19.763184 z M 15.272461,19.709473 L 15.326172,19.709473 C 15.355468,19.709473 15.390461,19.723715 15.431152,19.752197 C 15.471842,19.780681 15.492187,19.819337 15.492188,19.868164 C 15.492187,19.965821 15.475097,20.037435 15.440918,20.083008 C 15.406737,20.128581 15.351806,20.179037 15.276123,20.234375 C 15.200439,20.289714 15.147135,20.317383 15.116211,20.317383 C 15.047851,20.317383 14.997395,20.301921 14.964844,20.270996 C 14.932291,20.240072 14.916015,20.155436 14.916016,20.01709 C 14.916015,19.88851 14.92334,19.812012 14.937988,19.787598 C 14.952636,19.763184 14.988037,19.74406 15.044189,19.730225 C 15.100341,19.716391 15.176432,19.709473 15.272461,19.709473 L 15.272461,19.709473 z M 18.849121,20.522461 C 18.60498,20.522461 18.417399,20.452474 18.286377,20.3125 C 18.155355,20.172526 18.089844,19.9764 18.089844,19.724121 C 18.089844,19.299317 18.2583,18.85132 18.595215,18.380127 C 18.932128,17.908938 19.245441,17.673343 19.535156,17.67334 C 19.66699,17.673343 19.780516,17.74455 19.875732,17.886963 C 19.970945,18.029381 20.018553,18.180341 20.018555,18.339844 C 20.018553,18.435874 19.997801,18.518475 19.956299,18.587646 C 19.914793,18.656821 19.872882,18.691408 19.830566,18.691406 C 19.736163,18.691408 19.669432,18.596193 19.630371,18.405762 C 19.586424,18.200686 19.522948,18.098147 19.439941,18.098145 C 19.270669,18.098147 19.070474,18.299156 18.839355,18.701172 C 18.608235,19.103191 18.492675,19.442547 18.492676,19.719238 C 18.492675,19.995931 18.649739,20.134278 18.963867,20.134277 C 19.203124,20.134278 19.484699,20.021973 19.808594,19.797363 C 19.922524,19.717611 20.006346,19.677735 20.060059,19.677734 C 20.115395,19.677735 20.143064,19.709473 20.143066,19.772949 C 20.143064,19.896648 19.997394,20.052491 19.706055,20.240479 C 19.414712,20.428467 19.129068,20.522461 18.849121,20.522461 L 18.849121,20.522461 z M 21.43457,20.505371 C 21.211588,20.505371 21.027669,20.420736 20.882812,20.251465 C 20.737955,20.082194 20.665527,19.873047 20.665527,19.624023 C 20.665527,19.204103 20.806722,18.790285 21.089111,18.382568 C 21.3715,17.974856 21.709634,17.770999 22.103516,17.770996 C 22.36393,17.770999 22.575112,17.871096 22.737061,18.071289 C 22.899005,18.271486 22.979978,18.50993 22.97998,18.786621 C 22.979978,19.209799 22.812742,19.602052 22.478271,19.963379 C 22.143797,20.324707 21.795897,20.505371 21.43457,20.505371 L 21.43457,20.505371 z M 21.095215,19.560547 C 21.095214,19.724936 21.129801,19.859213 21.198975,19.963379 C 21.268147,20.067546 21.3597,20.119629 21.473633,20.119629 C 21.716145,20.119629 21.959471,19.986573 22.203613,19.720459 C 22.447752,19.454347 22.569822,19.15853 22.569824,18.833008 C 22.569822,18.632814 22.523028,18.470461 22.429443,18.345947 C 22.335854,18.221438 22.210122,18.159182 22.052246,18.15918 C 21.7902,18.159182 21.565184,18.319908 21.377197,18.641357 C 21.189208,18.962811 21.095214,19.269207 21.095215,19.560547 L 21.095215,19.560547 z M 25.304199,19.372559 C 25.086098,19.722494 24.854979,19.992269 24.61084,20.181885 C 24.366698,20.371501 24.142089,20.466309 23.937012,20.466309 C 23.779134,20.466309 23.654215,20.40568 23.562256,20.284424 C 23.470296,20.163168 23.424316,20.001628 23.424316,19.799805 C 23.424316,19.388022 23.591552,18.965659 23.926025,18.532715 C 24.260497,18.099774 24.621418,17.883303 25.008789,17.883301 C 25.178058,17.883303 25.335122,17.955732 25.47998,18.100586 L 25.821777,16.503906 C 25.846189,16.394861 25.891355,16.321619 25.957275,16.28418 C 26.023191,16.246749 26.074867,16.228031 26.112305,16.228027 C 26.226234,16.228031 26.2832,16.328943 26.283203,16.530762 C 26.2832,16.566573 26.245765,16.700036 26.170898,16.931152 C 26.052081,17.289228 25.939369,17.729088 25.832764,18.250732 C 25.726153,18.772381 25.672849,19.191082 25.672852,19.506836 C 25.672849,19.832357 25.74365,19.995118 25.885254,19.995117 C 25.976397,19.995118 26.070798,19.965007 26.168457,19.904785 C 26.209144,19.875489 26.247393,19.86084 26.283203,19.86084 C 26.335283,19.86084 26.361325,19.89502 26.361328,19.963379 C 26.361325,20.046387 26.28849,20.142416 26.142822,20.251465 C 25.997149,20.360514 25.847816,20.415039 25.694824,20.415039 C 25.426267,20.415039 25.29199,20.15625 25.291992,19.638672 C 25.29199,19.550782 25.296059,19.462078 25.304199,19.372559 L 25.304199,19.372559 z M 24.984375,18.22998 C 24.720702,18.229983 24.459471,18.408612 24.200684,18.765869 C 23.941894,19.12313 23.812499,19.453126 23.8125,19.755859 C 23.812499,19.95931 23.880045,20.061035 24.015137,20.061035 C 24.142089,20.061035 24.296304,19.994304 24.477783,19.86084 C 24.65926,19.727377 24.846027,19.514568 25.038086,19.222412 C 25.230141,18.930259 25.32617,18.710939 25.326172,18.564453 C 25.32617,18.49284 25.293211,18.419191 25.227295,18.343506 C 25.161375,18.267824 25.080402,18.229983 24.984375,18.22998 L 24.984375,18.22998 z M 28.954102,19.555664 C 28.954099,19.72168 28.807208,19.921875 28.513428,20.15625 C 28.219644,20.390625 27.916503,20.507812 27.604004,20.507812 C 27.341959,20.507812 27.139729,20.430501 26.997314,20.275879 C 26.854899,20.121257 26.783691,19.905599 26.783691,19.628906 C 26.783691,19.163413 26.940755,18.720705 27.254883,18.300781 C 27.569009,17.880862 27.912434,17.670901 28.285156,17.670898 C 28.407225,17.670901 28.506915,17.710777 28.584229,17.790527 C 28.661538,17.870282 28.700193,17.966311 28.700195,18.078613 C 28.700193,18.329266 28.577309,18.569338 28.331543,18.798828 C 28.085773,19.028322 27.756997,19.253745 27.345215,19.475098 C 27.260579,19.519044 27.218261,19.57601 27.218262,19.645996 C 27.218261,19.781088 27.257324,19.889323 27.335449,19.970703 C 27.413573,20.052084 27.529133,20.092774 27.682129,20.092773 C 28.032062,20.092774 28.389321,19.899089 28.753906,19.511719 C 28.807615,19.458009 28.848305,19.431153 28.875977,19.431152 C 28.928058,19.431153 28.954099,19.472657 28.954102,19.555664 L 28.954102,19.555664 z M 27.257324,19.174805 C 27.947427,18.76465 28.292479,18.435061 28.29248,18.186035 C 28.292479,18.088381 28.248533,18.039553 28.160645,18.039551 C 28.010903,18.039553 27.84204,18.149416 27.654053,18.369141 C 27.466064,18.588869 27.333821,18.857423 27.257324,19.174805 L 27.257324,19.174805 z M 12.101074,25.13916 C 11.982258,25.139162 11.922851,25.104168 11.922852,25.03418 C 11.922851,24.995119 11.934244,24.95158 11.957031,24.903564 C 11.979817,24.855552 12.045735,24.784344 12.154785,24.689941 L 12.589355,24.318848 C 12.76839,24.165855 12.964516,24.013674 13.177734,23.862305 C 13.088214,23.847659 12.848956,23.863935 12.459961,23.911133 C 12.158853,23.94857 11.948078,23.967288 11.827637,23.967285 C 11.547688,23.967288 11.407714,23.839521 11.407715,23.583984 C 11.407714,23.533532 11.424397,23.48918 11.457764,23.450928 C 11.491129,23.412682 11.532226,23.393558 11.581055,23.393555 C 11.616861,23.393558 11.660807,23.412275 11.712891,23.449707 C 11.777994,23.495283 11.828857,23.52458 11.865479,23.537598 C 11.902099,23.550622 11.956216,23.557132 12.027832,23.557129 C 12.143391,23.557132 12.354979,23.542484 12.662598,23.513184 C 13.067869,23.465986 13.390948,23.442386 13.631836,23.442383 C 13.832028,23.442386 13.932126,23.50749 13.932129,23.637695 C 13.932126,23.730472 13.891029,23.80941 13.808838,23.874512 C 13.726641,23.939619 13.607419,24.018557 13.451172,24.111328 C 13.244464,24.235028 13.100014,24.327395 13.017822,24.388428 C 12.935626,24.449465 12.853839,24.529624 12.772461,24.628906 C 12.951495,24.615887 13.086586,24.609377 13.177734,24.609375 C 13.374672,24.609377 13.543943,24.634198 13.685547,24.683838 C 13.827146,24.733482 13.933347,24.798179 14.00415,24.87793 C 14.074948,24.957684 14.129066,25.021974 14.166504,25.070801 C 14.203936,25.11963 14.222653,25.207521 14.222656,25.334473 C 14.222653,25.443523 14.1429,25.619711 13.983398,25.863037 C 13.82389,26.106364 13.560219,26.299642 13.192383,26.442871 C 12.824542,26.5861 12.465656,26.657715 12.115723,26.657715 C 12.01481,26.657715 11.869547,26.645101 11.679932,26.619873 C 11.490315,26.594645 11.373942,26.548665 11.330811,26.481934 C 11.287679,26.415202 11.266113,26.347657 11.266113,26.279297 C 11.266113,26.108399 11.346679,26.02295 11.507812,26.022949 C 11.514322,26.02295 11.526529,26.027019 11.544434,26.035156 L 11.712891,26.105957 C 11.898437,26.190593 12.067707,26.232911 12.220703,26.23291 C 12.354165,26.232911 12.557616,26.206462 12.831055,26.153564 C 13.10449,26.100668 13.333982,25.987549 13.519531,25.814209 C 13.705075,25.64087 13.797849,25.502117 13.797852,25.397949 C 13.797849,25.220542 13.704668,25.102947 13.518311,25.045166 C 13.331947,24.987388 13.124835,24.958498 12.896973,24.958496 C 12.579588,24.958498 12.314289,25.018719 12.101074,25.13916 L 12.101074,25.13916 z M 15.272461,25.959473 L 15.326172,25.959473 C 15.355468,25.959473 15.390461,25.973715 15.431152,26.002197 C 15.471842,26.030681 15.492187,26.069337 15.492188,26.118164 C 15.492187,26.215821 15.475097,26.287435 15.440918,26.333008 C 15.406737,26.378581 15.351806,26.429037 15.276123,26.484375 C 15.200439,26.539714 15.147135,26.567383 15.116211,26.567383 C 15.047851,26.567383 14.997395,26.551921 14.964844,26.520996 C 14.932291,26.490072 14.916015,26.405436 14.916016,26.26709 C 14.916015,26.13851 14.92334,26.062012 14.937988,26.037598 C 14.952636,26.013184 14.988037,25.99406 15.044189,25.980225 C 15.100341,25.966391 15.176432,25.959473 15.272461,25.959473 L 15.272461,25.959473 z M 18.629395,25.244141 C 18.837727,24.864911 19.08675,24.557701 19.376465,24.32251 C 19.666177,24.087324 19.927407,23.969729 20.160156,23.969727 C 20.288735,23.969729 20.397784,24.029137 20.487305,24.147949 C 20.57682,24.266767 20.621579,24.411623 20.621582,24.58252 C 20.621579,25.088706 20.430743,25.563559 20.049072,26.00708 C 19.667397,26.450602 19.264159,26.672363 18.839355,26.672363 C 18.723795,26.672363 18.617594,26.641032 18.520752,26.578369 C 18.423909,26.515706 18.369791,26.437175 18.358398,26.342773 C 18.351888,26.266276 18.329915,26.20931 18.29248,26.171875 C 18.222493,26.101889 18.1875,26.027019 18.1875,25.947266 C 18.1875,25.799154 18.22819,25.482586 18.30957,24.997559 L 18.561035,23.537598 C 18.647297,23.047692 18.710367,22.744958 18.750244,22.629395 C 18.79012,22.513839 18.834472,22.436528 18.883301,22.397461 C 18.932128,22.358403 18.992349,22.338871 19.063965,22.338867 C 19.177896,22.338871 19.234862,22.437341 19.234863,22.634277 C 19.234862,22.821456 19.172199,23.0835 19.046875,23.42041 C 18.926431,23.744306 18.787271,24.352216 18.629395,25.244141 L 18.629395,25.244141 z M 18.570801,26.057129 C 18.655435,26.215007 18.757974,26.293946 18.878418,26.293945 C 19.063964,26.293946 19.26009,26.217041 19.466797,26.063232 C 19.673501,25.909425 19.85213,25.692953 20.002686,25.413818 C 20.153237,25.134686 20.228513,24.89909 20.228516,24.707031 C 20.228513,24.62077 20.213051,24.546714 20.182129,24.484863 C 20.151202,24.423017 20.11214,24.392092 20.064941,24.39209 C 19.838702,24.392092 19.562417,24.577232 19.236084,24.94751 C 18.909748,25.317791 18.687987,25.687664 18.570801,26.057129 L 18.570801,26.057129 z M 22.816406,25.571289 C 22.608071,25.921225 22.394855,26.19222 22.176758,26.384277 C 21.958658,26.576335 21.756021,26.672363 21.568848,26.672363 C 21.461425,26.672363 21.351969,26.609701 21.240479,26.484375 C 21.128987,26.35905 21.073242,26.166179 21.073242,25.905762 C 21.073242,25.692547 21.124511,25.378419 21.227051,24.963379 C 21.313313,24.616701 21.356445,24.373375 21.356445,24.233398 C 21.403645,24.135745 21.477701,24.086917 21.578613,24.086914 C 21.646972,24.086917 21.701496,24.110924 21.742188,24.158936 C 21.782877,24.206952 21.803222,24.257001 21.803223,24.309082 C 21.803222,24.423017 21.763345,24.584963 21.683594,24.794922 C 21.532226,25.203452 21.456542,25.5542 21.456543,25.847168 C 21.456542,26.114096 21.518391,26.247559 21.64209,26.247559 C 21.799966,26.247559 22.000975,26.113282 22.245117,25.844727 C 22.489256,25.576173 22.698403,25.201824 22.872559,24.72168 C 22.940916,24.529624 22.996661,24.404706 23.039795,24.346924 C 23.082924,24.289146 23.141111,24.260256 23.214355,24.260254 C 23.32503,24.260256 23.380368,24.333498 23.380371,24.47998 C 23.380368,24.497886 23.364906,24.557294 23.333984,24.658203 C 23.236326,25.01465 23.187498,25.351564 23.1875,25.668945 C 23.187498,26.049805 23.25016,26.296387 23.375488,26.408691 C 23.44059,26.468913 23.473142,26.517741 23.473145,26.555176 C 23.473142,26.600749 23.440183,26.642253 23.374268,26.679688 C 23.308347,26.717122 23.248533,26.73584 23.194824,26.73584 C 23.08089,26.73584 22.98893,26.651204 22.918945,26.481934 C 22.848956,26.312663 22.813963,26.062826 22.813965,25.732422 L 22.813965,25.651855 C 22.813963,25.625815 22.814777,25.598959 22.816406,25.571289 L 22.816406,25.571289 z M 25.865723,25.749512 C 25.846189,25.734864 25.791665,25.780437 25.702148,25.88623 C 25.554035,26.060385 25.364826,26.215007 25.134521,26.350098 C 24.904214,26.485189 24.690592,26.552734 24.493652,26.552734 C 24.347167,26.552734 24.232421,26.506755 24.149414,26.414795 C 24.066406,26.322836 24.024902,26.195476 24.024902,26.032715 C 24.024902,25.780437 24.120117,25.499269 24.310547,25.189209 C 24.500976,24.879152 24.767496,24.608563 25.110107,24.377441 C 25.452716,24.146324 25.752602,24.030764 26.009766,24.030762 C 26.144854,24.030764 26.263669,24.069827 26.366211,24.147949 C 26.390622,24.167483 26.411781,24.183759 26.429688,24.196777 C 26.458982,24.217939 26.486651,24.260663 26.512695,24.324951 C 26.538734,24.389244 26.551755,24.44092 26.551758,24.47998 C 26.551755,24.504397 26.542803,24.541832 26.524902,24.592285 C 26.425616,24.862469 26.35807,25.086265 26.322266,25.263672 C 26.286456,25.441082 26.247393,25.739747 26.205078,26.159668 C 26.166013,26.537272 26.123696,26.827799 26.078125,27.03125 C 26.03255,27.2347 25.950356,27.43164 25.831543,27.62207 C 25.712726,27.812499 25.570311,27.955321 25.404297,28.050537 C 25.23828,28.14575 25.067382,28.193358 24.891602,28.193359 C 24.587239,28.193358 24.286946,28.088377 23.990723,27.878418 C 23.694499,27.668456 23.546387,27.499999 23.546387,27.373047 C 23.546387,27.293294 23.576498,27.253417 23.636719,27.253418 C 23.666016,27.253417 23.753093,27.301432 23.897949,27.397461 C 24.280436,27.652994 24.624674,27.780761 24.930664,27.780762 C 25.19759,27.780761 25.400633,27.638345 25.539795,27.353516 C 25.678953,27.068684 25.773761,26.643066 25.824219,26.07666 C 25.83561,25.94808 25.849445,25.839031 25.865723,25.749512 L 25.865723,25.749512 z M 25.86084,24.40918 C 25.722492,24.409182 25.549559,24.480796 25.342041,24.624023 C 25.13452,24.767254 24.933104,24.977215 24.737793,25.253906 C 24.54248,25.5306 24.444824,25.762533 24.444824,25.949707 C 24.444824,26.013184 24.464762,26.063233 24.504639,26.099854 C 24.544514,26.136475 24.588866,26.154786 24.637695,26.154785 C 24.782551,26.154786 24.97176,26.079916 25.205322,25.930176 C 25.438882,25.780437 25.639891,25.572511 25.80835,25.306396 C 25.976804,25.040285 26.061033,24.831545 26.061035,24.680176 C 26.061033,24.499514 25.994301,24.409182 25.86084,24.40918 L 25.86084,24.40918 z M 14.146973,31.713867 C 13.92236,31.632488 13.652178,31.60075 13.336426,31.618652 C 13.282713,31.8042 13.255857,31.97754 13.255859,32.138672 L 13.258301,32.248535 L 13.258301,32.348633 L 13.260742,32.458496 C 13.262367,32.521973 13.262367,32.564698 13.260742,32.58667 C 13.259112,32.608643 13.280271,32.646485 13.324219,32.700195 C 13.366534,32.752279 13.387693,32.788086 13.387695,32.807617 C 13.387693,32.856445 13.361244,32.910563 13.30835,32.969971 C 13.25545,33.029378 13.204588,33.059082 13.155762,33.059082 C 13.027179,33.059082 12.94173,33.029378 12.899414,32.969971 C 12.857094,32.910563 12.835936,32.821452 12.835938,32.702637 C 12.835936,32.63916 12.842446,32.539063 12.855469,32.402344 C 12.86686,32.270508 12.874184,32.171225 12.877441,32.104492 C 12.88395,31.946616 12.903481,31.794435 12.936035,31.647949 C 12.896971,31.64144 12.839191,31.638185 12.762695,31.638184 C 12.416014,31.638185 12.135253,31.666668 11.92041,31.723633 C 11.686034,31.78711 11.474446,31.818849 11.285645,31.818848 C 11.207519,31.818849 11.119629,31.76351 11.021973,31.652832 C 11.095215,31.451011 11.493164,31.064455 12.21582,30.493164 C 12.446939,30.312503 12.634113,30.157067 12.777344,30.026855 C 12.927081,29.888512 13.093911,29.75098 13.277832,29.614258 C 13.461749,29.477542 13.569984,29.409183 13.602539,29.40918 C 13.734372,29.409183 13.80029,29.442549 13.800293,29.509277 C 13.788897,29.556481 13.74251,29.725752 13.661133,30.01709 C 13.519529,30.572105 13.430011,30.977378 13.392578,31.23291 C 13.49837,31.273602 13.690427,31.293947 13.96875,31.293945 L 14.137207,31.293945 C 14.229977,31.293947 14.29793,31.313071 14.341064,31.351318 C 14.384193,31.389569 14.405758,31.470542 14.405762,31.594238 C 14.405758,31.631674 14.39111,31.66504 14.361816,31.694336 C 14.332516,31.723634 14.29915,31.738282 14.261719,31.738281 C 14.216143,31.738282 14.177894,31.730144 14.146973,31.713867 L 14.146973,31.713867 z M 13.260742,30.078125 C 13.200519,30.138349 13.062172,30.253909 12.845703,30.424805 C 12.665037,30.568036 12.537271,30.679527 12.462402,30.759277 C 12.288247,30.943199 12.049804,31.144207 11.74707,31.362305 C 11.74707,31.38672 11.761718,31.398927 11.791016,31.398926 C 11.854491,31.372886 12.092935,31.34603 12.506348,31.318359 C 12.739093,31.302085 12.909178,31.278485 13.016602,31.247559 C 13.02962,31.143394 13.053221,31.026206 13.087402,30.895996 C 13.20296,30.456545 13.26074,30.183922 13.260742,30.078125 L 13.260742,30.078125 z M 15.272461,32.209473 L 15.326172,32.209473 C 15.355468,32.209473 15.390461,32.223715 15.431152,32.252197 C 15.471842,32.280681 15.492187,32.319337 15.492188,32.368164 C 15.492187,32.465821 15.475097,32.537435 15.440918,32.583008 C 15.406737,32.628581 15.351806,32.679037 15.276123,32.734375 C 15.200439,32.789714 15.147135,32.817383 15.116211,32.817383 C 15.047851,32.817383 14.997395,32.801921 14.964844,32.770996 C 14.932291,32.740072 14.916015,32.655436 14.916016,32.51709 C 14.916015,32.38851 14.92334,32.312012 14.937988,32.287598 C 14.952636,32.263184 14.988037,32.24406 15.044189,32.230225 C 15.100341,32.216391 15.176432,32.209473 15.272461,32.209473 L 15.272461,32.209473 z M 19.17627,30.419922 C 19.343911,30.406904 19.501789,30.391441 19.649902,30.373535 C 19.796385,30.357262 19.918455,30.349124 20.016113,30.349121 C 20.139809,30.349124 20.217934,30.360517 20.250488,30.383301 C 20.283038,30.40609 20.299314,30.445966 20.299316,30.50293 C 20.299314,30.634768 20.207354,30.706382 20.023438,30.717773 C 19.787433,30.732424 19.570148,30.752769 19.371582,30.778809 C 19.173013,30.804852 19.065998,30.826418 19.050537,30.843506 C 19.035074,30.860598 18.985839,31.054282 18.902832,31.424561 C 18.819823,31.794842 18.778319,32.03532 18.77832,32.145996 C 18.778319,32.325033 18.80192,32.444255 18.849121,32.503662 C 18.896321,32.56307 18.967121,32.592774 19.061523,32.592773 C 19.201496,32.592774 19.395995,32.487793 19.64502,32.277832 C 19.741046,32.19157 19.815102,32.148438 19.867188,32.148438 C 19.937172,32.148438 19.972166,32.185873 19.972168,32.260742 C 19.972166,32.37793 19.859454,32.529704 19.634033,32.716064 C 19.408608,32.902425 19.177896,32.995605 18.941895,32.995605 C 18.548014,32.995605 18.351074,32.763672 18.351074,32.299805 C 18.351074,32.132162 18.391764,31.87256 18.473145,31.520996 C 18.552896,31.171063 18.592773,30.961102 18.592773,30.891113 C 18.592773,30.866701 18.573241,30.854494 18.53418,30.854492 L 18.280273,30.876465 C 18.07194,30.876467 17.967773,30.793459 17.967773,30.627441 C 17.967773,30.533043 18.015788,30.485842 18.111816,30.48584 L 18.614746,30.48584 C 18.648925,30.485842 18.679036,30.47038 18.705078,30.439453 C 18.731119,30.408531 18.769368,30.304771 18.819824,30.128174 C 18.870279,29.951582 18.915038,29.777021 18.954102,29.604492 C 18.993163,29.433597 19.06966,29.348148 19.183594,29.348145 C 19.253579,29.348148 19.308104,29.372562 19.347168,29.421387 C 19.386229,29.470218 19.40576,29.515791 19.405762,29.558105 C 19.40576,29.580895 19.376463,29.697269 19.317871,29.907227 L 19.17627,30.419922 z M 22.616211,32.055664 C 22.616209,32.22168 22.469317,32.421875 22.175537,32.65625 C 21.881753,32.890625 21.578612,33.007812 21.266113,33.007812 C 21.004068,33.007812 20.801839,32.930501 20.659424,32.775879 C 20.517008,32.621257 20.445801,32.405599 20.445801,32.128906 C 20.445801,31.663413 20.602864,31.220705 20.916992,30.800781 C 21.231119,30.380862 21.574543,30.170901 21.947266,30.170898 C 22.069334,30.170901 22.169025,30.210777 22.246338,30.290527 C 22.323647,30.370282 22.362303,30.466311 22.362305,30.578613 C 22.362303,30.829266 22.239419,31.069338 21.993652,31.298828 C 21.747883,31.528322 21.419107,31.753745 21.007324,31.975098 C 20.922688,32.019044 20.88037,32.07601 20.880371,32.145996 C 20.88037,32.281088 20.919433,32.389323 20.997559,32.470703 C 21.075683,32.552084 21.191243,32.592774 21.344238,32.592773 C 21.694172,32.592774 22.05143,32.399089 22.416016,32.011719 C 22.469724,31.958009 22.510414,31.931153 22.538086,31.931152 C 22.590167,31.931153 22.616209,31.972657 22.616211,32.055664 L 22.616211,32.055664 z M 20.919434,31.674805 C 21.609536,31.26465 21.954588,30.935061 21.95459,30.686035 C 21.954588,30.588381 21.910643,30.539553 21.822754,30.539551 C 21.673013,30.539553 21.504149,30.649416 21.316162,30.869141 C 21.128173,31.088869 20.99593,31.357423 20.919434,31.674805 L 20.919434,31.674805 z M 24.352051,32.324219 C 24.352049,32.218425 24.221841,32.097983 23.961426,31.962891 C 23.631021,31.793621 23.407633,31.658123 23.29126,31.556396 C 23.174886,31.454673 23.116699,31.341147 23.116699,31.21582 C 23.116699,30.891929 23.279052,30.623375 23.60376,30.410156 C 23.928466,30.196943 24.193358,30.090335 24.398438,30.090332 C 24.530272,30.090335 24.625893,30.113121 24.685303,30.158691 C 24.744708,30.204267 24.774412,30.283206 24.774414,30.395508 C 24.774412,30.445966 24.752846,30.489097 24.709717,30.524902 C 24.666583,30.560712 24.632811,30.578616 24.608398,30.578613 C 24.590493,30.578616 24.5555,30.566409 24.503418,30.541992 C 24.451333,30.519208 24.417153,30.507815 24.400879,30.507812 C 24.319497,30.507815 24.154296,30.567222 23.905273,30.686035 C 23.656249,30.804852 23.531738,30.93913 23.531738,31.088867 C 23.531738,31.180015 23.575683,31.262616 23.663574,31.33667 C 23.751464,31.410727 23.909341,31.501466 24.137207,31.608887 C 24.321125,31.696779 24.468016,31.790773 24.577881,31.890869 C 24.687742,31.990968 24.742674,32.108562 24.742676,32.243652 C 24.742674,32.492676 24.570962,32.687582 24.227539,32.828369 C 23.884113,32.969157 23.556152,33.039551 23.243652,33.039551 C 22.97998,33.039551 22.848144,32.950032 22.848145,32.770996 C 22.848144,32.709147 22.877848,32.663574 22.937256,32.634277 C 22.996663,32.604981 23.056478,32.590332 23.116699,32.590332 C 23.141113,32.590332 23.1875,32.59847 23.255859,32.614746 C 23.322591,32.631022 23.366536,32.63916 23.387695,32.63916 C 23.568359,32.63916 23.762043,32.60905 23.96875,32.548828 C 24.175454,32.488607 24.303221,32.413737 24.352051,32.324219 L 24.352051,32.324219 z M 26.236816,30.419922 C 26.404458,30.406904 26.562336,30.391441 26.710449,30.373535 C 26.856932,30.357262 26.979002,30.349124 27.07666,30.349121 C 27.200356,30.349124 27.278481,30.360517 27.311035,30.383301 C 27.343585,30.40609 27.359861,30.445966 27.359863,30.50293 C 27.359861,30.634768 27.267901,30.706382 27.083984,30.717773 C 26.84798,30.732424 26.630695,30.752769 26.432129,30.778809 C 26.23356,30.804852 26.126545,30.826418 26.111084,30.843506 C 26.095621,30.860598 26.046386,31.054282 25.963379,31.424561 C 25.88037,31.794842 25.838866,32.03532 25.838867,32.145996 C 25.838866,32.325033 25.862467,32.444255 25.909668,32.503662 C 25.956867,32.56307 26.027668,32.592774 26.12207,32.592773 C 26.262043,32.592774 26.456541,32.487793 26.705566,32.277832 C 26.801593,32.19157 26.875649,32.148438 26.927734,32.148438 C 26.997719,32.148438 27.032713,32.185873 27.032715,32.260742 C 27.032713,32.37793 26.920001,32.529704 26.69458,32.716064 C 26.469155,32.902425 26.238443,32.995605 26.002441,32.995605 C 25.608561,32.995605 25.411621,32.763672 25.411621,32.299805 C 25.411621,32.132162 25.452311,31.87256 25.533691,31.520996 C 25.613443,31.171063 25.65332,30.961102 25.65332,30.891113 C 25.65332,30.866701 25.633788,30.854494 25.594727,30.854492 L 25.34082,30.876465 C 25.132487,30.876467 25.02832,30.793459 25.02832,30.627441 C 25.02832,30.533043 25.076334,30.485842 25.172363,30.48584 L 25.675293,30.48584 C 25.709472,30.485842 25.739583,30.47038 25.765625,30.439453 C 25.791666,30.408531 25.829914,30.304771 25.880371,30.128174 C 25.930826,29.951582 25.975585,29.777021 26.014648,29.604492 C 26.05371,29.433597 26.130207,29.348148 26.244141,29.348145 C 26.314126,29.348148 26.368651,29.372562 26.407715,29.421387 C 26.446776,29.470218 26.466307,29.515791 26.466309,29.558105 C 26.466307,29.580895 26.43701,29.697269 26.378418,29.907227 L 26.236816,30.419922 z M 12.657715,36.442871 C 12.56494,36.530764 12.455077,36.669111 12.328125,36.85791 C 12.293944,36.908368 12.266275,36.948244 12.245117,36.977539 C 12.222329,37.008466 12.206867,37.030438 12.19873,37.043457 C 12.289875,37.098798 12.46647,37.145184 12.728516,37.182617 C 13.0638,37.231447 13.31323,37.286786 13.476807,37.348633 C 13.640378,37.410483 13.758379,37.500409 13.830811,37.618408 C 13.903236,37.736411 13.93945,37.897137 13.939453,38.100586 C 13.93945,38.22754 13.880856,38.369955 13.763672,38.527832 C 13.646482,38.68571 13.451169,38.83545 13.177734,38.977051 C 12.904295,39.118652 12.601561,39.189453 12.269531,39.189453 C 11.99772,39.189453 11.764566,39.135742 11.570068,39.02832 C 11.375569,38.920899 11.27832,38.830567 11.27832,38.757324 C 11.27832,38.601075 11.37679,38.52295 11.57373,38.522949 C 11.617675,38.52295 11.664876,38.543295 11.715332,38.583984 C 11.895995,38.710938 12.103514,38.774414 12.337891,38.774414 C 12.586912,38.774414 12.842853,38.700359 13.105713,38.552246 C 13.368569,38.404135 13.499997,38.262533 13.5,38.127441 C 13.499997,37.954917 13.436114,37.822674 13.30835,37.730713 C 13.18058,37.638755 12.981606,37.578127 12.711426,37.548828 L 12.159668,37.487793 C 12.005045,37.468263 11.885416,37.42798 11.800781,37.366943 C 11.716145,37.30591 11.673827,37.249351 11.673828,37.197266 C 11.673827,37.141929 11.703938,37.079266 11.76416,37.009277 C 11.77718,36.991376 11.847981,36.888837 11.976562,36.70166 C 12.241861,36.306155 12.409097,36.097415 12.478271,36.075439 C 12.547443,36.05347 12.986489,36.029463 13.79541,36.003418 C 13.938636,36.000166 14.086748,35.976566 14.239746,35.932617 C 14.360185,35.900068 14.435055,35.883792 14.464355,35.883789 C 14.565263,35.883792 14.653154,35.913903 14.728027,35.974121 C 14.781734,36.001793 14.80859,36.031904 14.808594,36.064453 C 14.80859,36.111657 14.778479,36.171064 14.718262,36.242676 C 14.658037,36.314293 14.571367,36.358238 14.458252,36.374512 C 14.34513,36.390791 14.203936,36.398929 14.034668,36.398926 L 13.219238,36.374512 C 12.979978,36.374514 12.792804,36.397301 12.657715,36.442871 L 12.657715,36.442871 z M 15.272461,38.459473 L 15.326172,38.459473 C 15.355468,38.459473 15.390461,38.473715 15.431152,38.502197 C 15.471842,38.530681 15.492187,38.569337 15.492188,38.618164 C 15.492187,38.715821 15.475097,38.787435 15.440918,38.833008 C 15.406737,38.878581 15.351806,38.929037 15.276123,38.984375 C 15.200439,39.039714 15.147135,39.067383 15.116211,39.067383 C 15.047851,39.067383 14.997395,39.051921 14.964844,39.020996 C 14.932291,38.990072 14.916015,38.905436 14.916016,38.76709 C 14.916015,38.63851 14.92334,38.562012 14.937988,38.537598 C 14.952636,38.513184 14.988037,38.49406 15.044189,38.480225 C 15.100341,38.466391 15.176432,38.459473 15.272461,38.459473 L 15.272461,38.459473 z M 18.675781,38.164062 C 18.692056,38.134767 18.711588,38.094077 18.734375,38.041992 C 18.845051,37.788087 18.946776,37.589113 19.039551,37.445068 C 19.132323,37.301027 19.234455,37.163088 19.345947,37.03125 C 19.457437,36.899416 19.559162,36.799319 19.651123,36.730957 C 19.743081,36.6626 19.826495,36.614993 19.901367,36.588135 C 19.976235,36.561282 20.048663,36.547854 20.118652,36.547852 C 20.260252,36.547854 20.375811,36.590579 20.465332,36.676025 C 20.554848,36.761477 20.599607,36.861168 20.599609,36.975098 C 20.599607,37.025555 20.583738,37.071128 20.552002,37.111816 C 20.520261,37.152508 20.47184,37.172854 20.406738,37.172852 C 20.338376,37.172854 20.275714,37.142743 20.21875,37.08252 C 20.160154,37.0223 20.099119,36.99219 20.035645,36.992188 C 19.866372,36.99219 19.631997,37.197268 19.33252,37.607422 C 19.033039,38.017579 18.850748,38.469239 18.785645,38.962402 C 18.769368,39.089356 18.738443,39.173177 18.692871,39.213867 C 18.647297,39.254557 18.583007,39.274902 18.5,39.274902 C 18.420247,39.274902 18.362467,39.215495 18.32666,39.09668 C 18.290852,38.977865 18.272949,38.77767 18.272949,38.496094 C 18.272949,38.419597 18.277018,38.25114 18.285156,37.990723 C 18.294921,37.683107 18.314453,37.434898 18.34375,37.246094 C 18.348632,37.215171 18.35677,37.142743 18.368164,37.028809 C 18.379557,36.903485 18.393798,36.816409 18.410889,36.767578 C 18.427978,36.718752 18.462971,36.67318 18.515869,36.630859 C 18.568766,36.588544 18.626139,36.567385 18.687988,36.567383 C 18.748209,36.567385 18.793375,36.58651 18.823486,36.624756 C 18.853596,36.663007 18.868651,36.704104 18.868652,36.748047 C 18.868651,36.811526 18.852375,36.901044 18.819824,37.016602 C 18.782388,37.145184 18.760416,37.233889 18.753906,37.282715 C 18.749023,37.338055 18.740071,37.395835 18.727051,37.456055 C 18.710774,37.526043 18.694498,37.709962 18.678223,38.007812 L 18.675781,38.098145 L 18.675781,38.164062 z M 22.821289,38.305664 C 22.821287,38.47168 22.674396,38.671875 22.380615,38.90625 C 22.086831,39.140625 21.78369,39.257812 21.471191,39.257812 C 21.209146,39.257812 21.006917,39.180501 20.864502,39.025879 C 20.722086,38.871257 20.650879,38.655599 20.650879,38.378906 C 20.650879,37.913413 20.807942,37.470705 21.12207,37.050781 C 21.436197,36.630862 21.779621,36.420901 22.152344,36.420898 C 22.274412,36.420901 22.374103,36.460777 22.451416,36.540527 C 22.528725,36.620282 22.567381,36.716311 22.567383,36.828613 C 22.567381,37.079266 22.444497,37.319338 22.19873,37.548828 C 21.952961,37.778322 21.624185,38.003745 21.212402,38.225098 C 21.127766,38.269044 21.085449,38.32601 21.085449,38.395996 C 21.085449,38.531088 21.124511,38.639323 21.202637,38.720703 C 21.280761,38.802084 21.396321,38.842774 21.549316,38.842773 C 21.89925,38.842774 22.256509,38.649089 22.621094,38.261719 C 22.674802,38.208009 22.715492,38.181153 22.743164,38.181152 C 22.795245,38.181153 22.821287,38.222657 22.821289,38.305664 L 22.821289,38.305664 z M 21.124512,37.924805 C 21.814614,37.51465 22.159666,37.185061 22.159668,36.936035 C 22.159666,36.838381 22.115721,36.789553 22.027832,36.789551 C 21.878091,36.789553 21.709227,36.899416 21.52124,37.119141 C 21.333251,37.338869 21.201008,37.607423 21.124512,37.924805 L 21.124512,37.924805 z M 24.183594,35 C 24.30078,35.000004 24.359374,35.074874 24.359375,35.224609 C 24.359374,35.358077 24.288573,35.675459 24.146973,36.176758 C 24.057453,36.492516 23.98828,36.840823 23.939453,37.22168 C 23.890624,37.602541 23.86621,37.901206 23.866211,38.117676 C 23.86621,38.386231 23.8833,38.653158 23.91748,38.918457 C 23.92399,38.968913 23.927245,39.005534 23.927246,39.02832 C 23.927245,39.109701 23.899576,39.179687 23.844238,39.238281 C 23.788899,39.296875 23.730305,39.326172 23.668457,39.326172 C 23.582193,39.326172 23.522379,39.272461 23.489014,39.165039 C 23.455647,39.057617 23.438964,38.884278 23.438965,38.64502 C 23.438964,38.099773 23.504475,37.424318 23.635498,36.618652 C 23.766519,35.812992 23.870686,35.341801 23.947998,35.205078 C 24.025308,35.068363 24.10384,35.000004 24.183594,35 L 24.183594,35 z M 26.854492,38.305664 C 26.85449,38.47168 26.707599,38.671875 26.413818,38.90625 C 26.120034,39.140625 25.816893,39.257812 25.504395,39.257812 C 25.242349,39.257812 25.04012,39.180501 24.897705,39.025879 C 24.755289,38.871257 24.684082,38.655599 24.684082,38.378906 C 24.684082,37.913413 24.841145,37.470705 25.155273,37.050781 C 25.4694,36.630862 25.812824,36.420901 26.185547,36.420898 C 26.307615,36.420901 26.407306,36.460777 26.484619,36.540527 C 26.561928,36.620282 26.600584,36.716311 26.600586,36.828613 C 26.600584,37.079266 26.4777,37.319338 26.231934,37.548828 C 25.986164,37.778322 25.657388,38.003745 25.245605,38.225098 C 25.160969,38.269044 25.118652,38.32601 25.118652,38.395996 C 25.118652,38.531088 25.157714,38.639323 25.23584,38.720703 C 25.313964,38.802084 25.429524,38.842774 25.58252,38.842773 C 25.932453,38.842774 26.289712,38.649089 26.654297,38.261719 C 26.708006,38.208009 26.748696,38.181153 26.776367,38.181152 C 26.828448,38.181153 26.85449,38.222657 26.854492,38.305664 L 26.854492,38.305664 z M 25.157715,37.924805 C 25.847818,37.51465 26.192869,37.185061 26.192871,36.936035 C 26.192869,36.838381 26.148924,36.789553 26.061035,36.789551 C 25.911294,36.789553 25.74243,36.899416 25.554443,37.119141 C 25.366454,37.338869 25.234211,37.607423 25.157715,37.924805 L 25.157715,37.924805 z M 29.007812,38.244629 C 28.779946,38.550619 28.554523,38.780111 28.331543,38.933105 C 28.10856,39.0861 27.904296,39.162598 27.71875,39.162598 C 27.593424,39.162598 27.485188,39.109701 27.394043,39.003906 C 27.302897,38.898112 27.257324,38.762207 27.257324,38.596191 C 27.257324,38.168132 27.448567,37.707114 27.831055,37.213135 C 28.21354,36.719159 28.593586,36.472171 28.971191,36.472168 C 29.107908,36.472171 29.209633,36.550296 29.276367,36.706543 C 29.297524,36.758629 29.33089,36.78467 29.376465,36.784668 C 29.506671,36.78467 29.571775,36.835126 29.571777,36.936035 C 29.571775,36.986493 29.563637,37.055666 29.547363,37.143555 C 29.45947,37.623699 29.415525,37.962241 29.415527,38.15918 C 29.415525,38.55306 29.490395,38.789063 29.640137,38.867188 C 29.711749,38.90625 29.747556,38.954265 29.747559,39.01123 C 29.747556,39.061686 29.712562,39.112549 29.642578,39.163818 C 29.572589,39.215088 29.505043,39.240723 29.439941,39.240723 C 29.314614,39.240723 29.211261,39.15446 29.129883,38.981934 C 29.048501,38.809408 29.007811,38.56364 29.007812,38.244629 L 29.007812,38.244629 z M 28.858887,36.870117 C 28.644041,36.870119 28.394204,37.071535 28.109375,37.474365 C 27.824543,37.877199 27.682128,38.211264 27.682129,38.476562 C 27.682128,38.663737 27.743977,38.757325 27.867676,38.757324 C 28.046711,38.757325 28.294921,38.576661 28.612305,38.215332 C 28.929686,37.854005 29.088377,37.521974 29.088379,37.219238 C 29.088377,36.986493 29.01188,36.870119 28.858887,36.870117 L 28.858887,36.870117 z M 31.529785,38.574219 C 31.529784,38.468425 31.399575,38.347983 31.13916,38.212891 C 30.808756,38.043621 30.585367,37.908123 30.468994,37.806396 C 30.35262,37.704673 30.294433,37.591147 30.294434,37.46582 C 30.294433,37.141929 30.456787,36.873375 30.781494,36.660156 C 31.1062,36.446943 31.371092,36.340335 31.576172,36.340332 C 31.708006,36.340335 31.803628,36.363121 31.863037,36.408691 C 31.922443,36.454267 31.952146,36.533206 31.952148,36.645508 C 31.952146,36.695966 31.930581,36.739097 31.887451,36.774902 C 31.844318,36.810712 31.810545,36.828616 31.786133,36.828613 C 31.768227,36.828616 31.733234,36.816409 31.681152,36.791992 C 31.629067,36.769208 31.594888,36.757815 31.578613,36.757812 C 31.497232,36.757815 31.33203,36.817222 31.083008,36.936035 C 30.833984,37.054852 30.709472,37.18913 30.709473,37.338867 C 30.709472,37.430015 30.753417,37.512616 30.841309,37.58667 C 30.929198,37.660727 31.087076,37.751466 31.314941,37.858887 C 31.498859,37.946779 31.64575,38.040773 31.755615,38.140869 C 31.865477,38.240968 31.920408,38.358562 31.92041,38.493652 C 31.920408,38.742676 31.748696,38.937582 31.405273,39.078369 C 31.061848,39.219157 30.733886,39.289551 30.421387,39.289551 C 30.157715,39.289551 30.025879,39.200032 30.025879,39.020996 C 30.025879,38.959147 30.055583,38.913574 30.11499,38.884277 C 30.174398,38.854981 30.234212,38.840332 30.294434,38.840332 C 30.318847,38.840332 30.365234,38.84847 30.433594,38.864746 C 30.500325,38.881022 30.54427,38.88916 30.56543,38.88916 C 30.746093,38.88916 30.939778,38.85905 31.146484,38.798828 C 31.353189,38.738607 31.480956,38.663737 31.529785,38.574219 L 31.529785,38.574219 z M 34.510742,38.305664 C 34.51074,38.47168 34.363849,38.671875 34.070068,38.90625 C 33.776284,39.140625 33.473143,39.257812 33.160645,39.257812 C 32.898599,39.257812 32.69637,39.180501 32.553955,39.025879 C 32.411539,38.871257 32.340332,38.655599 32.340332,38.378906 C 32.340332,37.913413 32.497395,37.470705 32.811523,37.050781 C 33.12565,36.630862 33.469074,36.420901 33.841797,36.420898 C 33.963865,36.420901 34.063556,36.460777 34.140869,36.540527 C 34.218178,36.620282 34.256834,36.716311 34.256836,36.828613 C 34.256834,37.079266 34.13395,37.319338 33.888184,37.548828 C 33.642414,37.778322 33.313638,38.003745 32.901855,38.225098 C 32.817219,38.269044 32.774902,38.32601 32.774902,38.395996 C 32.774902,38.531088 32.813964,38.639323 32.89209,38.720703 C 32.970214,38.802084 33.085774,38.842774 33.23877,38.842773 C 33.588703,38.842774 33.945962,38.649089 34.310547,38.261719 C 34.364256,38.208009 34.404946,38.181153 34.432617,38.181152 C 34.484698,38.181153 34.51074,38.222657 34.510742,38.305664 L 34.510742,38.305664 z M 32.813965,37.924805 C 33.504068,37.51465 33.849119,37.185061 33.849121,36.936035 C 33.849119,36.838381 33.805174,36.789553 33.717285,36.789551 C 33.567544,36.789553 33.39868,36.899416 33.210693,37.119141 C 33.022704,37.338869 32.890461,37.607423 32.813965,37.924805 L 32.813965,37.924805 z"
       id="text3675" />
    <path
       style="fill:url(#linearGradient3641);fill-opacity:1;stroke:none;stroke-width:1;stroke-linecap:square;stroke-linejoin:round;stroke-miterlimit:4;stroke-opacity:1;filter:url(#filter3631)"
       d="M 30.22963,33.533333 C 35.40972,32.7252 38.309284,33.369308 39.461978,34.82486 C 36.834818,36.797699 35.868605,38.533228 32.388959,41.902011 C 32.956116,39.000776 31.706295,36.434568 30.22963,33.533333 z"
       id="path3629"
       sodipodi:nodetypes="cccc"
       transform="matrix(1.0261825,0,0,1.0612766,-2.0211172,-0.5881416)" />
    <path
       style="fill:url(#linearGradient3627);fill-opacity:1;stroke:none;stroke-width:1;stroke-linecap:square;stroke-linejoin:round;stroke-miterlimit:4;stroke-opacity:1"
       d="M 30.22963,35.533333 C 34.549851,34.489256 37.847306,34.862967 39,36.318519 C 39,39.144482 33.547949,43.586073 31.118519,44.237037 C 31.685676,41.335802 31.706295,38.434568 30.22963,35.533333 z"
       id="rect3618"
       sodipodi:nodetypes="cccc" />
    <path
       sodipodi:nodetypes="ccccccccc"
       id="path3661"
       d="M 42.398079,3.5000004 L 36.060822,14.520291 L 30.314318,11.14548 L 28.5,14.304453 L 34.405855,17.772542 L 37.312645,19.479488 L 37.358785,19.506583 L 45.510358,5.3273206 L 42.398079,3.5000004 z"
       style="opacity:1;fill:url(#linearGradient3673);fill-opacity:1;stroke:none;stroke-width:1.34935486000000000;stroke-linecap:square;stroke-linejoin:round;stroke-miterlimit:4;stroke-dasharray:none;stroke-opacity:1;filter:url(#filter3663)" />
    <g
       id="g3655"
       transform="matrix(0.637406,0.3731061,-0.3680066,0.6462387,20.887198,-11.383888)">
      <path
         sodipodi:nodetypes="ccccccccc"
         id="rect3218"
         d="M 34.61356,1.5 L 34.541019,18.594853 L 25.518135,18.581983 L 25.500001,23.480697 L 34.772885,23.49357 L 39.336883,23.499901 L 39.409328,23.500001 L 39.500002,1.5064354 L 34.61356,1.5 z"
         style="opacity:1;fill:url(#linearGradient3659);fill-opacity:1;stroke:#4e9a06;stroke-width:1.34935486;stroke-linecap:square;stroke-linejoin:round;stroke-miterlimit:4;stroke-dasharray:none;stroke-opacity:1" />
      <path
         sodipodi:nodetypes="ccccccccc"
         id="path3645"
         d="M 35.525909,2.5000001 L 35.463731,19.557821 L 26.515543,19.546121 L 26.5,22.482452 L 34.448188,22.494154 L 38.360187,22.49991 L 38.422282,22.500001 L 38.500003,2.5058504 L 35.525909,2.5000001 z"
         style="opacity:1;fill:none;fill-opacity:1;stroke:#ffffff;stroke-width:1.34935486;stroke-linecap:square;stroke-linejoin:round;stroke-miterlimit:4;stroke-dasharray:none;stroke-opacity:0.45291479" />
    </g>
  </g>
</svg>
